<svg width="2967" height="1324" viewBox="0 0 2967 1324" fill="none" xmlns="http://www.w3.org/2000/svg">
<path d="M421.81 1054.75L126.41 733.579L255.005 615.304C278.633 593.572 301.562 578.948 323.791 571.433C346.021 563.918 366.83 562.727 386.218 567.86C405.511 572.889 422.561 583.453 437.37 599.554C448.909 612.1 456.544 625.437 460.276 639.567C463.912 653.592 464.128 667.675 460.923 681.816C457.726 695.757 451.689 709.126 442.81 721.924L445.695 725.061C458.407 714.333 473.029 707.253 489.558 703.823C506.193 700.296 523.144 701.205 540.413 706.552C557.585 711.793 573.431 722.308 587.951 738.094C603.625 755.136 613.382 774.242 617.222 795.413C621.07 816.384 618.345 838.286 609.047 861.119C599.748 883.953 583.076 906.428 559.03 928.544L421.81 1054.75ZM438.654 936.782L494.012 885.866C512.935 868.461 523.418 852.161 525.461 836.966C527.407 821.667 522.803 807.953 511.649 795.825C503.476 786.939 494.12 781.069 483.584 778.216C473.047 775.363 462.027 775.656 450.523 779.096C439.124 782.439 427.988 789.111 417.115 799.112L360.188 851.47L438.654 936.782ZM317.926 805.521L368.267 759.221C377.571 750.663 384.34 741.446 388.573 731.57C392.815 721.493 394.238 711.499 392.842 701.589C391.552 691.583 387.012 682.346 379.223 673.877C368.549 662.272 355.814 656.713 341.015 657.201C326.322 657.592 311.448 664.711 296.393 678.558L244.798 726.012L317.926 805.521Z" fill="#201C1A"/>
<path d="M771.796 771.353L683.425 815.676L622.443 358.088L728.717 304.785L1058.81 627.398L970.441 671.721L721.809 419.806L718.762 421.334L771.796 771.353ZM689.376 620.806L898.115 516.112L930.402 580.486L721.663 685.18L689.376 620.806Z" fill="#201C1A"/>
<path d="M1059.42 638.411L977.617 209.784L1146.72 177.51C1179.09 171.332 1207.83 171.85 1232.92 179.063C1258.12 186.111 1278.74 199.024 1294.76 217.802C1310.89 236.415 1321.66 259.883 1327.07 288.207C1332.5 316.671 1331.03 342.329 1322.67 365.183C1314.28 387.897 1299.47 406.92 1278.25 422.25C1257.16 437.553 1230.16 448.347 1197.23 454.631L1084 476.241L1070.1 403.408L1168.68 384.594C1185.98 381.292 1199.9 376.178 1210.43 369.25C1220.97 362.323 1228.12 353.582 1231.89 343.029C1235.8 332.45 1236.41 320.114 1233.72 306.022C1231.01 291.79 1225.86 280.336 1218.27 271.661C1210.83 262.96 1200.83 257.202 1188.29 254.39C1175.87 251.411 1160.93 251.585 1143.49 254.914L1082.38 266.577L1150.04 621.116L1059.42 638.411ZM1253.67 399.175L1397.43 573.903L1297.38 592.996L1155.93 417.829L1253.67 399.175Z" fill="#201C1A"/>
<path d="M1523.56 148.917L1522.51 585.279L1430.25 585.056L1431.31 148.694L1523.56 148.917Z" fill="#201C1A"/>
<path d="M1873.55 321.561C1875.17 304.366 1870.55 289.858 1859.69 278.038C1848.83 266.217 1832.53 258.181 1810.78 253.929C1796.01 251.04 1783.12 250.692 1772.13 252.885C1761.16 254.938 1752.25 259.058 1745.39 265.244C1738.68 271.457 1734.42 279.164 1732.62 288.365C1730.85 295.978 1731.14 302.983 1733.51 309.38C1736.02 315.804 1740 321.721 1745.45 327.129C1750.94 332.399 1757.49 337.371 1765.11 342.046C1772.77 346.581 1781.06 350.808 1789.99 354.725L1826.67 371.448C1844.53 379.282 1860.59 388.211 1874.84 398.234C1889.09 408.257 1900.94 419.474 1910.38 431.885C1919.82 444.297 1926.33 458.017 1929.9 473.044C1933.62 488.099 1933.8 504.562 1930.45 522.434C1925.19 548.615 1914.05 570.03 1897.05 586.678C1880.21 603.215 1858.35 614.355 1831.46 620.099C1804.74 625.73 1773.96 625.139 1739.11 618.325C1704.53 611.566 1675.46 600.381 1651.88 584.772C1628.44 569.189 1611.57 549.609 1601.27 526.03C1591.14 502.339 1588.74 475.021 1594.06 444.076L1681.68 461.205C1679.85 475.755 1681.62 488.548 1686.99 499.584C1692.52 510.508 1700.95 519.609 1712.26 526.887C1723.74 534.053 1737.29 539.162 1752.9 542.214C1768.24 545.212 1781.98 545.584 1794.15 543.331C1806.45 541.105 1816.52 536.632 1824.34 529.912C1832.17 523.193 1837.09 514.675 1839.11 504.359C1840.99 494.74 1839.71 486.096 1835.28 478.426C1830.98 470.784 1823.85 463.599 1813.87 456.873C1804.04 450.174 1791.68 443.416 1776.81 436.6L1732.46 415.773C1698.07 399.931 1672.25 380.626 1654.99 357.858C1637.73 335.089 1632.27 307.896 1638.59 276.278C1643.52 250.321 1654.85 229.016 1672.58 212.364C1690.45 195.74 1712.72 184.389 1739.38 178.312C1766.04 172.235 1794.98 172.249 1826.21 178.355C1857.99 184.569 1884.67 195.429 1906.25 210.936C1927.96 226.471 1943.54 245.221 1953 267.188C1962.45 289.154 1964.9 312.934 1960.33 338.527L1873.55 321.561Z" fill="#201C1A"/>
<path d="M2088.32 330.321L2122.22 262.223L2443.06 421.898L2409.17 489.996L2289.57 430.474L2129.04 753.034L2047.4 712.403L2207.93 389.843L2088.32 330.321Z" fill="#201C1A"/>
<path d="M2327.5 882.785L2254.39 816.236L2659.52 594.937L2747.45 674.968L2564.96 1098.92L2491.85 1032.38L2637.62 709.842L2635.1 707.547L2327.5 882.785ZM2438.39 751.783L2611.08 908.976L2562.61 962.234L2389.91 805.041L2438.39 751.783Z" fill="#201C1A"/>
<path d="M990.727 1231.26C968.379 1231.26 949.155 1226.53 933.057 1217.06C917.053 1207.49 904.742 1194.23 896.125 1177.28C887.602 1160.33 883.341 1140.83 883.341 1118.76C883.341 1096.41 887.65 1076.81 896.267 1059.95C904.979 1043 917.337 1029.79 933.341 1020.32C949.345 1010.76 968.379 1005.98 990.443 1005.98C1009.48 1005.98 1026.14 1009.43 1040.44 1016.35C1054.74 1023.26 1066.06 1032.97 1074.39 1045.47C1082.73 1057.97 1087.32 1072.64 1088.17 1089.5H1031.07C1029.46 1078.61 1025.2 1069.85 1018.28 1063.22C1011.47 1056.5 1002.52 1053.14 991.438 1053.14C982.062 1053.14 973.871 1055.69 966.864 1060.81C959.951 1065.83 954.553 1073.16 950.67 1082.82C946.788 1092.48 944.847 1104.18 944.847 1117.91C944.847 1131.83 946.741 1143.67 950.528 1153.42C954.411 1163.17 959.856 1170.61 966.864 1175.72C973.871 1180.84 982.062 1183.39 991.438 1183.39C998.35 1183.39 1004.55 1181.97 1010.05 1179.13C1015.63 1176.29 1020.23 1172.17 1023.82 1166.77C1027.52 1161.28 1029.93 1154.7 1031.07 1147.03H1088.17C1087.22 1163.7 1082.68 1178.37 1074.53 1191.06C1066.48 1203.66 1055.36 1213.51 1041.15 1220.61C1026.95 1227.71 1010.14 1231.26 990.727 1231.26ZM1225.49 1231.26C1203.43 1231.26 1184.35 1226.57 1168.25 1217.2C1152.24 1207.73 1139.89 1194.57 1131.17 1177.71C1122.46 1160.76 1118.11 1141.11 1118.11 1118.76C1118.11 1096.22 1122.46 1076.53 1131.17 1059.67C1139.89 1042.72 1152.24 1029.56 1168.25 1020.18C1184.35 1010.71 1203.43 1005.98 1225.49 1005.98C1247.56 1005.98 1266.59 1010.71 1282.6 1020.18C1298.69 1029.56 1311.1 1042.72 1319.81 1059.67C1328.52 1076.53 1332.88 1096.22 1332.88 1118.76C1332.88 1141.11 1328.52 1160.76 1319.81 1177.71C1311.1 1194.57 1298.69 1207.73 1282.6 1217.2C1266.59 1226.57 1247.56 1231.26 1225.49 1231.26ZM1225.78 1184.39C1235.81 1184.39 1244.2 1181.55 1250.92 1175.86C1257.64 1170.09 1262.71 1162.23 1266.12 1152.28C1269.62 1142.34 1271.37 1131.02 1271.37 1118.34C1271.37 1105.65 1269.62 1094.33 1266.12 1084.39C1262.71 1074.44 1257.64 1066.58 1250.92 1060.81C1244.2 1055.03 1235.81 1052.14 1225.78 1052.14C1215.64 1052.14 1207.12 1055.03 1200.21 1060.81C1193.39 1066.58 1188.23 1074.44 1184.73 1084.39C1181.32 1094.33 1179.61 1105.65 1179.61 1118.34C1179.61 1131.02 1181.32 1142.34 1184.73 1152.28C1188.23 1162.23 1193.39 1170.09 1200.21 1175.86C1207.12 1181.55 1215.64 1184.39 1225.78 1184.39ZM1489.56 1008.82V1054.27H1354.9V1008.82H1489.56ZM1385.72 1227V993.051C1385.72 977.237 1388.8 964.121 1394.95 953.705C1401.2 943.288 1409.73 935.475 1420.52 930.267C1431.32 925.059 1443.58 922.455 1457.31 922.455C1466.59 922.455 1475.07 923.165 1482.74 924.585C1490.5 926.006 1496.28 927.284 1500.07 928.42L1489.27 973.875C1486.9 973.117 1483.97 972.407 1480.46 971.744C1477.06 971.081 1473.55 970.75 1469.95 970.75C1461.05 970.75 1454.85 972.833 1451.35 977C1447.84 981.072 1446.09 986.801 1446.09 994.188V1227H1385.72ZM1643.85 1008.82V1054.27H1509.19V1008.82H1643.85ZM1540.02 1227V993.051C1540.02 977.237 1543.09 964.121 1549.25 953.705C1555.5 943.288 1564.02 935.475 1574.82 930.267C1585.61 925.059 1597.88 922.455 1611.61 922.455C1620.89 922.455 1629.36 923.165 1637.03 924.585C1644.8 926.006 1650.58 927.284 1654.36 928.42L1643.57 973.875C1641.2 973.117 1638.27 972.407 1634.76 971.744C1631.35 971.081 1627.85 970.75 1624.25 970.75C1615.35 970.75 1609.15 972.833 1605.64 977C1602.14 981.072 1600.39 986.801 1600.39 994.188V1227H1540.02ZM1772.44 1231.26C1750 1231.26 1730.68 1226.72 1714.48 1217.62C1698.39 1208.44 1685.98 1195.47 1677.27 1178.7C1668.56 1161.85 1664.2 1141.91 1664.2 1118.9C1664.2 1096.46 1668.56 1076.76 1677.27 1059.81C1685.98 1042.86 1698.24 1029.65 1714.06 1020.18C1729.97 1010.71 1748.62 1005.98 1770.02 1005.98C1784.42 1005.98 1797.82 1008.3 1810.22 1012.94C1822.72 1017.48 1833.61 1024.35 1842.89 1033.53C1852.27 1042.72 1859.56 1054.27 1864.77 1068.19C1869.98 1082.02 1872.58 1098.21 1872.58 1116.77V1133.39H1688.35V1095.89H1815.62C1815.62 1087.18 1813.73 1079.46 1809.94 1072.74C1806.15 1066.02 1800.9 1060.76 1794.17 1056.97C1787.54 1053.09 1779.83 1051.15 1771.02 1051.15C1761.83 1051.15 1753.69 1053.28 1746.59 1057.54C1739.58 1061.71 1734.09 1067.34 1730.11 1074.44C1726.13 1081.45 1724.1 1089.26 1724 1097.88V1133.53C1724 1144.33 1725.99 1153.66 1729.97 1161.52C1734.04 1169.38 1739.77 1175.44 1747.15 1179.7C1754.54 1183.96 1763.3 1186.09 1773.43 1186.09C1780.16 1186.09 1786.31 1185.14 1791.9 1183.25C1797.49 1181.36 1802.27 1178.52 1806.25 1174.73C1810.22 1170.94 1813.25 1166.3 1815.34 1160.81L1871.3 1164.5C1868.46 1177.95 1862.64 1189.69 1853.83 1199.73C1845.12 1209.67 1833.85 1217.44 1820.02 1223.02C1806.29 1228.52 1790.43 1231.26 1772.44 1231.26ZM2011.5 1231.26C1989.06 1231.26 1969.74 1226.72 1953.55 1217.62C1937.45 1208.44 1925.04 1195.47 1916.33 1178.7C1907.62 1161.85 1903.26 1141.91 1903.26 1118.9C1903.26 1096.46 1907.62 1076.76 1916.33 1059.81C1925.04 1042.86 1937.31 1029.65 1953.12 1020.18C1969.03 1010.71 1987.69 1005.98 2009.09 1005.98C2023.48 1005.98 2036.88 1008.3 2049.29 1012.94C2061.79 1017.48 2072.68 1024.35 2081.96 1033.53C2091.33 1042.72 2098.62 1054.27 2103.83 1068.19C2109.04 1082.02 2111.64 1098.21 2111.64 1116.77V1133.39H1927.41V1095.89H2054.68C2054.68 1087.18 2052.79 1079.46 2049 1072.74C2045.21 1066.02 2039.96 1060.76 2033.23 1056.97C2026.61 1053.09 2018.89 1051.15 2010.08 1051.15C2000.9 1051.15 1992.75 1053.28 1985.65 1057.54C1978.64 1061.71 1973.15 1067.34 1969.17 1074.44C1965.19 1081.45 1963.16 1089.26 1963.06 1097.88V1133.53C1963.06 1144.33 1965.05 1153.66 1969.03 1161.52C1973.1 1169.38 1978.83 1175.44 1986.22 1179.7C1993.6 1183.96 2002.36 1186.09 2012.5 1186.09C2019.22 1186.09 2025.37 1185.14 2030.96 1183.25C2036.55 1181.36 2041.33 1178.52 2045.31 1174.73C2049.29 1170.94 2052.32 1166.3 2054.4 1160.81L2110.37 1164.5C2107.52 1177.95 2101.7 1189.69 2092.89 1199.73C2084.18 1209.67 2072.91 1217.44 2059.09 1223.02C2045.36 1228.52 2029.49 1231.26 2011.5 1231.26Z" fill="#865915"/>
</svg>
